<?xml version="1.0" standalone="no"?>
<!DOCTYPE svg PUBLIC "-//W3C//DTD SVG 1.1//EN"
"http://www.w3.org/Graphics/SVG/1.1/DTD/svg11.dtd">
<svg xmlns:ns0="http://www.w3.org/2000/svg" height="370" version="1.1" width="370" xmlns="http://www.w3.org/2000/svg"><rect fill="black" height="10" width="10" x="40" y="40" /><rect fill="black" height="10" width="10" x="40" y="50" /><rect fill="black" height="10" width="10" x="40" y="60" /><rect fill="black" height="10" width="10" x="40" y="70" /><rect fill="black" height="10" width="10" x="40" y="80" /><rect fill="black" height="10" width="10" x="40" y="90" /><rect fill="black" height="10" width="10" x="40" y="100" /><rect fill="black" height="10" width="10" x="40" y="260" /><rect fill="black" height="10" width="10" x="40" y="270" /><rect fill="black" height="10" width="10" x="40" y="280" /><rect fill="black" height="10" width="10" x="40" y="290" /><rect fill="black" height="10" width="10" x="40" y="300" /><rect fill="black" height="10" width="10" x="40" y="310" /><rect fill="black" height="10" width="10" x="40" y="320" /><rect fill="black" height="10" width="10" x="50" y="40" /><rect fill="black" height="10" width="10" x="50" y="100" /><rect fill="black" height="10" width="10" x="50" y="130" /><rect fill="black" height="10" width="10" x="50" y="180" /><rect fill="black" height="10" width="10" x="50" y="200" /><rect fill="black" height="10" width="10" x="50" y="240" /><rect fill="black" height="10" width="10" x="50" y="260" /><rect fill="black" height="10" width="10" x="50" y="320" /><rect fill="black" height="10" width="10" x="60" y="40" /><rect fill="black" height="10" width="10" x="60" y="60" /><rect fill="black" height="10" width="10" x="60" y="70" /><rect fill="black" height="10" width="10" x="60" y="80" /><rect fill="black" height="10" width="10" x="60" y="100" /><rect fill="black" height="10" width="10" x="60" y="120" /><rect fill="black" height="10" width="10" x="60" y="130" /><rect fill="black" height="10" width="10" x="60" y="140" /><rect fill="black" height="10" width="10" x="60" y="160" /><rect fill="black" height="10" width="10" x="60" y="170" /><rect fill="black" height="10" width="10" x="60" y="200" /><rect fill="black" height="10" width="10" x="60" y="230" /><rect fill="black" height="10" width="10" x="60" y="260" /><rect fill="black" height="10" width="10" x="60" y="280" /><rect fill="black" height="10" width="10" x="60" y="290" /><rect fill="black" height="10" width="10" x="60" y="300" /><rect fill="black" height="10" width="10" x="60" y="320" /><rect fill="black" height="10" width="10" x="70" y="40" /><rect fill="black" height="10" width="10" x="70" y="60" /><rect fill="black" height="10" width="10" x="70" y="70" /><rect fill="black" height="10" width="10" x="70" y="80" /><rect fill="black" height="10" width="10" x="70" y="100" /><rect fill="black" height="10" width="10" x="70" y="130" /><rect fill="black" height="10" width="10" x="70" y="150" /><rect fill="black" height="10" width="10" x="70" y="160" /><rect fill="black" height="10" width="10" x="70" y="170" /><rect fill="black" height="10" width="10" x="70" y="180" /><rect fill="black" height="10" width="10" x="70" y="190" /><rect fill="black" height="10" width="10" x="70" y="210" /><rect fill="black" height="10" width="10" x="70" y="220" /><rect fill="black" height="10" width="10" x="70" y="260" /><rect fill="black" height="10" width="10" x="70" y="280" /><rect fill="black" height="10" width="10" x="70" y="290" /><rect fill="black" height="10" width="10" x="70" y="300" /><rect fill="black" height="10" width="10" x="70" y="320" /><rect fill="black" height="10" width="10" x="80" y="40" /><rect fill="black" height="10" width="10" x="80" y="60" /><rect fill="black" height="10" width="10" x="80" y="70" /><rect fill="black" height="10" width="10" x="80" y="80" /><rect fill="black" height="10" width="10" x="80" y="100" /><rect fill="black" height="10" width="10" x="80" y="120" /><rect fill="black" height="10" width="10" x="80" y="140" /><rect fill="black" height="10" width="10" x="80" y="170" /><rect fill="black" height="10" width="10" x="80" y="180" /><rect fill="black" height="10" width="10" x="80" y="190" /><rect fill="black" height="10" width="10" x="80" y="200" /><rect fill="black" height="10" width="10" x="80" y="210" /><rect fill="black" height="10" width="10" x="80" y="240" /><rect fill="black" height="10" width="10" x="80" y="260" /><rect fill="black" height="10" width="10" x="80" y="280" /><rect fill="black" height="10" width="10" x="80" y="290" /><rect fill="black" height="10" width="10" x="80" y="300" /><rect fill="black" height="10" width="10" x="80" y="320" /><rect fill="black" height="10" width="10" x="90" y="40" /><rect fill="black" height="10" width="10" x="90" y="100" /><rect fill="black" height="10" width="10" x="90" y="120" /><rect fill="black" height="10" width="10" x="90" y="140" /><rect fill="black" height="10" width="10" x="90" y="150" /><rect fill="black" height="10" width="10" x="90" y="160" /><rect fill="black" height="10" width="10" x="90" y="190" /><rect fill="black" height="10" width="10" x="90" y="210" /><rect fill="black" height="10" width="10" x="90" y="230" /><rect fill="black" height="10" width="10" x="90" y="260" /><rect fill="black" height="10" width="10" x="90" y="320" /><rect fill="black" height="10" width="10" x="100" y="40" /><rect fill="black" height="10" width="10" x="100" y="50" /><rect fill="black" height="10" width="10" x="100" y="60" /><rect fill="black" height="10" width="10" x="100" y="70" /><rect fill="black" height="10" width="10" x="100" y="80" /><rect fill="black" height="10" width="10" x="100" y="90" /><rect fill="black" height="10" width="10" x="100" y="100" /><rect fill="black" height="10" width="10" x="100" y="120" /><rect fill="black" height="10" width="10" x="100" y="140" /><rect fill="black" height="10" width="10" x="100" y="160" /><rect fill="black" height="10" width="10" x="100" y="180" /><rect fill="black" height="10" width="10" x="100" y="200" /><rect fill="black" height="10" width="10" x="100" y="220" /><rect fill="black" height="10" width="10" x="100" y="240" /><rect fill="black" height="10" width="10" x="100" y="260" /><rect fill="black" height="10" width="10" x="100" y="270" /><rect fill="black" height="10" width="10" x="100" y="280" /><rect fill="black" height="10" width="10" x="100" y="290" /><rect fill="black" height="10" width="10" x="100" y="300" /><rect fill="black" height="10" width="10" x="100" y="310" /><rect fill="black" height="10" width="10" x="100" y="320" /><rect fill="black" height="10" width="10" x="110" y="150" /><rect fill="black" height="10" width="10" x="110" y="170" /><rect fill="black" height="10" width="10" x="110" y="190" /><rect fill="black" height="10" width="10" x="110" y="230" /><rect fill="black" height="10" width="10" x="120" y="40" /><rect fill="black" height="10" width="10" x="120" y="70" /><rect fill="black" height="10" width="10" x="120" y="100" /><rect fill="black" height="10" width="10" x="120" y="120" /><rect fill="black" height="10" width="10" x="120" y="130" /><rect fill="black" height="10" width="10" x="120" y="140" /><rect fill="black" height="10" width="10" x="120" y="200" /><rect fill="black" height="10" width="10" x="120" y="250" /><rect fill="black" height="10" width="10" x="120" y="270" /><rect fill="black" height="10" width="10" x="120" y="280" /><rect fill="black" height="10" width="10" x="130" y="40" /><rect fill="black" height="10" width="10" x="130" y="50" /><rect fill="black" height="10" width="10" x="130" y="60" /><rect fill="black" height="10" width="10" x="130" y="70" /><rect fill="black" height="10" width="10" x="130" y="120" /><rect fill="black" height="10" width="10" x="130" y="140" /><rect fill="black" height="10" width="10" x="130" y="180" /><rect fill="black" height="10" width="10" x="130" y="200" /><rect fill="black" height="10" width="10" x="130" y="220" /><rect fill="black" height="10" width="10" x="130" y="230" /><rect fill="black" height="10" width="10" x="130" y="240" /><rect fill="black" height="10" width="10" x="130" y="260" /><rect fill="black" height="10" width="10" x="130" y="280" /><rect fill="black" height="10" width="10" x="140" y="70" /><rect fill="black" height="10" width="10" x="140" y="80" /><rect fill="black" height="10" width="10" x="140" y="90" /><rect fill="black" height="10" width="10" x="140" y="100" /><rect fill="black" height="10" width="10" x="140" y="110" /><rect fill="black" height="10" width="10" x="140" y="120" /><rect fill="black" height="10" width="10" x="140" y="180" /><rect fill="black" height="10" width="10" x="140" y="200" /><rect fill="black" height="10" width="10" x="140" y="220" /><rect fill="black" height="10" width="10" x="140" y="240" /><rect fill="black" height="10" width="10" x="150" y="40" /><rect fill="black" height="10" width="10" x="150" y="50" /><rect fill="black" height="10" width="10" x="150" y="80" /><rect fill="black" height="10" width="10" x="150" y="110" /><rect fill="black" height="10" width="10" x="150" y="120" /><rect fill="black" height="10" width="10" x="150" y="130" /><rect fill="black" height="10" width="10" x="150" y="150" /><rect fill="black" height="10" width="10" x="150" y="160" /><rect fill="black" height="10" width="10" x="150" y="180" /><rect fill="black" height="10" width="10" x="150" y="220" /><rect fill="black" height="10" width="10" x="150" y="230" /><rect fill="black" height="10" width="10" x="150" y="250" /><rect fill="black" height="10" width="10" x="150" y="260" /><rect fill="black" height="10" width="10" x="150" y="270" /><rect fill="black" height="10" width="10" x="160" y="40" /><rect fill="black" height="10" width="10" x="160" y="50" /><rect fill="black" height="10" width="10" x="160" y="60" /><rect fill="black" height="10" width="10" x="160" y="70" /><rect fill="black" height="10" width="10" x="160" y="90" /><rect fill="black" height="10" width="10" x="160" y="100" /><rect fill="black" height="10" width="10" x="160" y="110" /><rect fill="black" height="10" width="10" x="160" y="120" /><rect fill="black" height="10" width="10" x="160" y="130" /><rect fill="black" height="10" width="10" x="160" y="140" /><rect fill="black" height="10" width="10" x="160" y="150" /><rect fill="black" height="10" width="10" x="160" y="170" /><rect fill="black" height="10" width="10" x="160" y="180" /><rect fill="black" height="10" width="10" x="160" y="190" /><rect fill="black" height="10" width="10" x="160" y="200" /><rect fill="black" height="10" width="10" x="160" y="210" /><rect fill="black" height="10" width="10" x="160" y="220" /><rect fill="black" height="10" width="10" x="160" y="240" /><rect fill="black" height="10" width="10" x="160" y="280" /><rect fill="black" height="10" width="10" x="170" y="40" /><rect fill="black" height="10" width="10" x="170" y="60" /><rect fill="black" height="10" width="10" x="170" y="70" /><rect fill="black" height="10" width="10" x="170" y="90" /><rect fill="black" height="10" width="10" x="170" y="120" /><rect fill="black" height="10" width="10" x="170" y="150" /><rect fill="black" height="10" width="10" x="170" y="160" /><rect fill="black" height="10" width="10" x="170" y="190" /><rect fill="black" height="10" width="10" x="170" y="200" /><rect fill="black" height="10" width="10" x="170" y="210" /><rect fill="black" height="10" width="10" x="170" y="230" /><rect fill="black" height="10" width="10" x="170" y="260" /><rect fill="black" height="10" width="10" x="180" y="40" /><rect fill="black" height="10" width="10" x="180" y="50" /><rect fill="black" height="10" width="10" x="180" y="80" /><rect fill="black" height="10" width="10" x="180" y="100" /><rect fill="black" height="10" width="10" x="180" y="160" /><rect fill="black" height="10" width="10" x="180" y="170" /><rect fill="black" height="10" width="10" x="180" y="190" /><rect fill="black" height="10" width="10" x="180" y="200" /><rect fill="black" height="10" width="10" x="180" y="220" /><rect fill="black" height="10" width="10" x="180" y="230" /><rect fill="black" height="10" width="10" x="180" y="260" /><rect fill="black" height="10" width="10" x="180" y="270" /><rect fill="black" height="10" width="10" x="190" y="50" /><rect fill="black" height="10" width="10" x="190" y="60" /><rect fill="black" height="10" width="10" x="190" y="70" /><rect fill="black" height="10" width="10" x="190" y="110" /><rect fill="black" height="10" width="10" x="190" y="120" /><rect fill="black" height="10" width="10" x="190" y="130" /><rect fill="black" height="10" width="10" x="190" y="140" /><rect fill="black" height="10" width="10" x="190" y="150" /><rect fill="black" height="10" width="10" x="190" y="180" /><rect fill="black" height="10" width="10" x="190" y="190" /><rect fill="black" height="10" width="10" x="190" y="200" /><rect fill="black" height="10" width="10" x="190" y="210" /><rect fill="black" height="10" width="10" x="190" y="230" /><rect fill="black" height="10" width="10" x="190" y="260" /><rect fill="black" height="10" width="10" x="190" y="270" /><rect fill="black" height="10" width="10" x="190" y="280" /><rect fill="black" height="10" width="10" x="200" y="60" /><rect fill="black" height="10" width="10" x="200" y="80" /><rect fill="black" height="10" width="10" x="200" y="90" /><rect fill="black" height="10" width="10" x="200" y="100" /><rect fill="black" height="10" width="10" x="200" y="110" /><rect fill="black" height="10" width="10" x="200" y="130" /><rect fill="black" height="10" width="10" x="200" y="140" /><rect fill="black" height="10" width="10" x="200" y="150" /><rect fill="black" height="10" width="10" x="200" y="160" /><rect fill="black" height="10" width="10" x="200" y="180" /><rect fill="black" height="10" width="10" x="200" y="190" /><rect fill="black" height="10" width="10" x="200" y="240" /><rect fill="black" height="10" width="10" x="200" y="270" /><rect fill="black" height="10" width="10" x="200" y="280" /><rect fill="black" height="10" width="10" x="210" y="80" /><rect fill="black" height="10" width="10" x="210" y="130" /><rect fill="black" height="10" width="10" x="210" y="160" /><rect fill="black" height="10" width="10" x="210" y="200" /><rect fill="black" height="10" width="10" x="210" y="220" /><rect fill="black" height="10" width="10" x="210" y="280" /><rect fill="black" height="10" width="10" x="220" y="60" /><rect fill="black" height="10" width="10" x="220" y="70" /><rect fill="black" height="10" width="10" x="220" y="80" /><rect fill="black" height="10" width="10" x="220" y="90" /><rect fill="black" height="10" width="10" x="220" y="100" /><rect fill="black" height="10" width="10" x="220" y="150" /><rect fill="black" height="10" width="10" x="220" y="170" /><rect fill="black" height="10" width="10" x="220" y="190" /><rect fill="black" height="10" width="10" x="220" y="200" /><rect fill="black" height="10" width="10" x="220" y="230" /><rect fill="black" height="10" width="10" x="220" y="240" /><rect fill="black" height="10" width="10" x="220" y="250" /><rect fill="black" height="10" width="10" x="230" y="50" /><rect fill="black" height="10" width="10" x="230" y="70" /><rect fill="black" height="10" width="10" x="230" y="90" /><rect fill="black" height="10" width="10" x="230" y="130" /><rect fill="black" height="10" width="10" x="230" y="140" /><rect fill="black" height="10" width="10" x="230" y="160" /><rect fill="black" height="10" width="10" x="230" y="190" /><rect fill="black" height="10" width="10" x="230" y="200" /><rect fill="black" height="10" width="10" x="230" y="210" /><rect fill="black" height="10" width="10" x="230" y="230" /><rect fill="black" height="10" width="10" x="230" y="250" /><rect fill="black" height="10" width="10" x="230" y="260" /><rect fill="black" height="10" width="10" x="240" y="40" /><rect fill="black" height="10" width="10" x="240" y="50" /><rect fill="black" height="10" width="10" x="240" y="60" /><rect fill="black" height="10" width="10" x="240" y="100" /><rect fill="black" height="10" width="10" x="240" y="110" /><rect fill="black" height="10" width="10" x="240" y="120" /><rect fill="black" height="10" width="10" x="240" y="130" /><rect fill="black" height="10" width="10" x="240" y="140" /><rect fill="black" height="10" width="10" x="240" y="150" /><rect fill="black" height="10" width="10" x="240" y="170" /><rect fill="black" height="10" width="10" x="240" y="180" /><rect fill="black" height="10" width="10" x="240" y="240" /><rect fill="black" height="10" width="10" x="240" y="250" /><rect fill="black" height="10" width="10" x="240" y="260" /><rect fill="black" height="10" width="10" x="240" y="270" /><rect fill="black" height="10" width="10" x="240" y="280" /><rect fill="black" height="10" width="10" x="250" y="120" /><rect fill="black" height="10" width="10" x="250" y="130" /><rect fill="black" height="10" width="10" x="250" y="140" /><rect fill="black" height="10" width="10" x="250" y="150" /><rect fill="black" height="10" width="10" x="250" y="170" /><rect fill="black" height="10" width="10" x="250" y="220" /><rect fill="black" height="10" width="10" x="250" y="240" /><rect fill="black" height="10" width="10" x="250" y="280" /><rect fill="black" height="10" width="10" x="260" y="40" /><rect fill="black" height="10" width="10" x="260" y="50" /><rect fill="black" height="10" width="10" x="260" y="60" /><rect fill="black" height="10" width="10" x="260" y="70" /><rect fill="black" height="10" width="10" x="260" y="80" /><rect fill="black" height="10" width="10" x="260" y="90" /><rect fill="black" height="10" width="10" x="260" y="100" /><rect fill="black" height="10" width="10" x="260" y="140" /><rect fill="black" height="10" width="10" x="260" y="160" /><rect fill="black" height="10" width="10" x="260" y="170" /><rect fill="black" height="10" width="10" x="260" y="180" /><rect fill="black" height="10" width="10" x="260" y="200" /><rect fill="black" height="10" width="10" x="260" y="230" /><rect fill="black" height="10" width="10" x="260" y="240" /><rect fill="black" height="10" width="10" x="260" y="260" /><rect fill="black" height="10" width="10" x="260" y="280" /><rect fill="black" height="10" width="10" x="270" y="40" /><rect fill="black" height="10" width="10" x="270" y="100" /><rect fill="black" height="10" width="10" x="270" y="160" /><rect fill="black" height="10" width="10" x="270" y="200" /><rect fill="black" height="10" width="10" x="270" y="210" /><rect fill="black" height="10" width="10" x="270" y="220" /><rect fill="black" height="10" width="10" x="270" y="230" /><rect fill="black" height="10" width="10" x="270" y="240" /><rect fill="black" height="10" width="10" x="270" y="280" /><rect fill="black" height="10" width="10" x="280" y="40" /><rect fill="black" height="10" width="10" x="280" y="60" /><rect fill="black" height="10" width="10" x="280" y="70" /><rect fill="black" height="10" width="10" x="280" y="80" /><rect fill="black" height="10" width="10" x="280" y="100" /><rect fill="black" height="10" width="10" x="280" y="130" /><rect fill="black" height="10" width="10" x="280" y="150" /><rect fill="black" height="10" width="10" x="280" y="180" /><rect fill="black" height="10" width="10" x="280" y="190" /><rect fill="black" height="10" width="10" x="280" y="200" /><rect fill="black" height="10" width="10" x="280" y="220" /><rect fill="black" height="10" width="10" x="280" y="240" /><rect fill="black" height="10" width="10" x="280" y="250" /><rect fill="black" height="10" width="10" x="280" y="260" /><rect fill="black" height="10" width="10" x="280" y="270" /><rect fill="black" height="10" width="10" x="280" y="280" /><rect fill="black" height="10" width="10" x="290" y="40" /><rect fill="black" height="10" width="10" x="290" y="60" /><rect fill="black" height="10" width="10" x="290" y="70" /><rect fill="black" height="10" width="10" x="290" y="80" /><rect fill="black" height="10" width="10" x="290" y="100" /><rect fill="black" height="10" width="10" x="290" y="120" /><rect fill="black" height="10" width="10" x="290" y="130" /><rect fill="black" height="10" width="10" x="290" y="140" /><rect fill="black" height="10" width="10" x="290" y="150" /><rect fill="black" height="10" width="10" x="290" y="170" /><rect fill="black" height="10" width="10" x="290" y="180" /><rect fill="black" height="10" width="10" x="290" y="200" /><rect fill="black" height="10" width="10" x="290" y="210" /><rect fill="black" height="10" width="10" x="290" y="230" /><rect fill="black" height="10" width="10" x="290" y="270" /><rect fill="black" height="10" width="10" x="300" y="40" /><rect fill="black" height="10" width="10" x="300" y="60" /><rect fill="black" height="10" width="10" x="300" y="70" /><rect fill="black" height="10" width="10" x="300" y="80" /><rect fill="black" height="10" width="10" x="300" y="100" /><rect fill="black" height="10" width="10" x="300" y="130" /><rect fill="black" height="10" width="10" x="300" y="140" /><rect fill="black" height="10" width="10" x="300" y="160" /><rect fill="black" height="10" width="10" x="300" y="170" /><rect fill="black" height="10" width="10" x="300" y="180" /><rect fill="black" height="10" width="10" x="300" y="210" /><rect fill="black" height="10" width="10" x="300" y="240" /><rect fill="black" height="10" width="10" x="310" y="40" /><rect fill="black" height="10" width="10" x="310" y="100" /><rect fill="black" height="10" width="10" x="310" y="130" /><rect fill="black" height="10" width="10" x="310" y="140" /><rect fill="black" height="10" width="10" x="310" y="160" /><rect fill="black" height="10" width="10" x="310" y="170" /><rect fill="black" height="10" width="10" x="310" y="180" /><rect fill="black" height="10" width="10" x="310" y="210" /><rect fill="black" height="10" width="10" x="310" y="220" /><rect fill="black" height="10" width="10" x="310" y="240" /><rect fill="black" height="10" width="10" x="310" y="260" /><rect fill="black" height="10" width="10" x="310" y="270" /><rect fill="black" height="10" width="10" x="310" y="280" /><rect fill="black" height="10" width="10" x="320" y="40" /><rect fill="black" height="10" width="10" x="320" y="50" /><rect fill="black" height="10" width="10" x="320" y="60" /><rect fill="black" height="10" width="10" x="320" y="70" /><rect fill="black" height="10" width="10" x="320" y="80" /><rect fill="black" height="10" width="10" x="320" y="90" /><rect fill="black" height="10" width="10" x="320" y="100" /><rect fill="black" height="10" width="10" x="320" y="120" /><rect fill="black" height="10" width="10" x="320" y="130" /><rect fill="black" height="10" width="10" x="320" y="140" /><rect fill="black" height="10" width="10" x="320" y="150" /><rect fill="black" height="10" width="10" x="320" y="160" /><rect fill="black" height="10" width="10" x="320" y="180" /><rect fill="black" height="10" width="10" x="320" y="210" /><rect fill="black" height="10" width="10" x="320" y="220" /><rect fill="black" height="10" width="10" x="320" y="230" /><rect fill="black" height="10" width="10" x="320" y="260" /><rect fill="black" height="10" width="10" x="320" y="270" /><g transform="translate(156.025 295.5) scale(1.05)"><ns0:g>
	<ns0:path d="M26.94,20.62c-0.625,1.582-1.473,2.917-2.543,3.999c-1.07,1.079-2.331,1.904-3.78,2.473   c-1.45,0.569-3.011,0.854-4.683,0.854c-1.806,0-3.48-0.307-5.019-0.92c-1.537-0.612-2.856-1.48-3.952-2.609   c-1.097-1.126-1.956-2.469-2.577-4.027c-0.621-1.562-0.93-3.279-0.93-5.154c0-1.895,0.327-3.612,0.981-5.152   c0.653-1.539,1.54-2.854,2.659-3.946c1.12-1.093,2.432-1.936,3.937-2.526c1.507-0.591,3.105-0.887,4.8-0.887   c2.164,0,4.01,0.374,5.538,1.121c1.526,0.747,2.828,1.701,3.897,2.86l-3.312,3.244c-0.758-0.824-1.657-1.455-2.693-1.889   c-1.037-0.436-2.181-0.653-3.43-0.653c-1.025,0-1.973,0.213-2.843,0.636c-0.87,0.424-1.622,0.992-2.257,1.707   c-0.638,0.713-1.132,1.545-1.49,2.492c-0.357,0.948-0.536,1.946-0.536,2.994c0,1.071,0.179,2.09,0.536,3.062   c0.357,0.968,0.858,1.822,1.505,2.558s1.411,1.324,2.292,1.758s1.844,0.65,2.894,0.65c1.472,0,2.726-0.287,3.763-0.869   c1.037-0.578,1.79-1.461,2.258-2.644h-6.223v-4.516h12.145C27.877,17.24,27.564,19.036,26.94,20.62z" />
	<ns0:path d="M31.557,27.545V3.124h5.352v24.421H31.557z" />
	<ns0:path d="M53.033,27.545h-5.119L39.92,3.124h5.485l4.75,15.589c0.045,0.18,0.089,0.346,0.133,0.503   c0.046,0.154,0.09,0.3,0.135,0.433c0.044,0.158,0.078,0.305,0.099,0.436c0.046-0.154,0.09-0.312,0.135-0.468   c0.067-0.267,0.156-0.568,0.268-0.902l4.717-15.589h5.351L53.033,27.545z" />
	<ns0:path d="M64.005,27.545V3.124h14.217V7.64h-8.866v5.72h8.23v4.516h-8.23v5.153h9.367v4.516H64.005L64.005,27.545z" />
	<ns0:path d="M99.789,27.545L88.993,13.328c-0.087-0.111-0.173-0.223-0.251-0.334c-0.079-0.112-0.139-0.223-0.184-0.335l-0.168-0.334   c0,0.134,0.012,0.267,0.033,0.401c0,0.111,0.006,0.241,0.018,0.384c0.01,0.146,0.018,0.297,0.018,0.452v13.984H83.14V3.124h4.625   l10.795,14.083c0.088,0.113,0.172,0.225,0.25,0.336c0.08,0.109,0.14,0.223,0.185,0.333l0.168,0.334   c-0.022-0.13-0.034-0.265-0.034-0.399c-0.021-0.109-0.031-0.238-0.031-0.385s0-0.295,0-0.451V3.124h5.318v24.421H99.789z" />
	<ns0:path d="M133.42,15.233c0,1.763-0.302,3.419-0.904,4.966c-0.603,1.551-1.455,2.902-2.56,4.052c-1.104,1.146-2.431,2.05-3.979,2.709   c-1.551,0.658-3.273,0.985-5.17,0.985c-1.896,0-3.613-0.336-5.15-1.002c-1.539-0.672-2.855-1.586-3.948-2.745   c-1.092-1.159-1.94-2.507-2.541-4.046c-0.604-1.541-0.903-3.18-0.903-4.919c0-1.76,0.301-3.401,0.903-4.917   c0.601-1.516,1.454-2.837,2.56-3.963c1.104-1.127,2.431-2.014,3.979-2.661s3.272-0.97,5.169-0.97s3.618,0.312,5.17,0.936   c1.548,0.625,2.869,1.488,3.961,2.594c1.096,1.104,1.936,2.424,2.528,3.964C133.124,11.755,133.42,13.428,133.42,15.233z    M127.898,15.233c0-1.071-0.166-2.08-0.504-3.026c-0.332-0.948-0.807-1.778-1.42-2.494c-0.613-0.712-1.351-1.276-2.207-1.689   c-0.858-0.412-1.826-0.619-2.895-0.619c-1.048,0-2.008,0.217-2.876,0.653c-0.871,0.434-1.618,1.015-2.242,1.74   c-0.625,0.725-1.11,1.555-1.456,2.491c-0.346,0.937-0.518,1.919-0.518,2.944c0,1.115,0.188,2.164,0.568,3.146   c0.379,0.98,0.887,1.833,1.521,2.559c0.636,0.726,1.378,1.293,2.226,1.709c0.848,0.41,1.75,0.615,2.709,0.615   c1.094,0,2.079-0.223,2.961-0.668c0.881-0.445,1.627-1.042,2.241-1.791c0.612-0.744,1.081-1.604,1.405-2.574   C127.736,17.259,127.898,16.261,127.898,15.233z" />
	<ns0:path d="M159.078,27.545h-5.188l-2.642-12.847c-0.046-0.245-0.101-0.585-0.17-1.019c-0.065-0.436-0.12-0.865-0.164-1.289   c-0.069-0.491-0.126-1.003-0.169-1.539c-0.045,0.559-0.102,1.082-0.168,1.572c-0.045,0.424-0.1,0.848-0.167,1.271   c-0.065,0.424-0.123,0.758-0.166,1.003l-2.644,12.847h-5.354l-6.32-24.421h5.552l3.146,13.047c0.043,0.244,0.094,0.514,0.148,0.803   c0.057,0.291,0.105,0.569,0.152,0.838c0.044,0.312,0.076,0.623,0.1,0.936c0.021-0.289,0.056-0.59,0.1-0.902   c0.045-0.244,0.09-0.523,0.136-0.836c0.044-0.312,0.089-0.593,0.134-0.837l2.676-13.047h5.318l2.879,13.047   c0.043,0.2,0.082,0.451,0.115,0.751c0.033,0.305,0.072,0.586,0.117,0.854c0.044,0.312,0.088,0.639,0.133,0.972   c0.023-0.312,0.057-0.623,0.102-0.937c0.043-0.268,0.088-0.545,0.136-0.836c0.042-0.291,0.1-0.56,0.165-0.804l3.046-13.047h5.419   L159.078,27.545z" />
</ns0:g>
</g></svg>